<?xml version="1.0" encoding="UTF-8" standalone="no"?>
<!-- Created with Inkscape (http://www.inkscape.org/) -->

<svg
   width="148mm"
   height="210mm"
   viewBox="0 0 148 210"
   version="1.1"
   id="svg5"
   sodipodi:docname="template.svg"
   inkscape:version="1.1.2 (b8e25be8, 2022-02-05)"
   xmlns:inkscape="http://www.inkscape.org/namespaces/inkscape"
   xmlns:sodipodi="http://sodipodi.sourceforge.net/DTD/sodipodi-0.dtd"
   xmlns="http://www.w3.org/2000/svg"
   xmlns:svg="http://www.w3.org/2000/svg">
  <sodipodi:namedview
     id="namedview10"
     pagecolor="#ffffff"
     bordercolor="#999999"
     borderopacity="1"
     inkscape:pageshadow="0"
     inkscape:pageopacity="0"
     inkscape:pagecheckerboard="0"
     inkscape:document-units="mm"
     showgrid="false"
     inkscape:zoom="0.45294147"
     inkscape:cx="75.064887"
     inkscape:cy="392.98676"
     inkscape:window-width="1920"
     inkscape:window-height="1080"
     inkscape:window-x="1080"
     inkscape:window-y="382"
     inkscape:window-maximized="0"
     inkscape:current-layer="svg5" />
  <defs
     id="defs2">
    <rect
       x="166.86328"
       y="689.59972"
       width="260.90234"
       height="51.757779"
       id="rect204860" />
    <rect
       x="67.392577"
       y="532.42382"
       width="466.40305"
       height="259.19358"
       id="rect168324" />
    <rect
       x="599.4152"
       y="514.41525"
       width="304.90407"
       height="113.56445"
       id="rect43903" />
    <rect
       x="134.36328"
       y="330.38691"
       width="255.6582"
       height="261.65223"
       id="rect26025" />
    <rect
       x="164.19141"
       y="381.97266"
       width="268.15625"
       height="307.61537"
       id="rect20783" />
    <rect
       x="101.86328"
       y="145.64844"
       width="383.85069"
       height="473.63688"
       id="rect4151" />
    <rect
       x="65.976934"
       y="225.5906"
       width="448.72823"
       height="476.41852"
       id="rect39241" />
    <rect
       x="48.139807"
       y="55.016923"
       width="465.92456"
       height="170.2086"
       id="rect5996" />
    <rect
       x="599.41522"
       y="514.41522"
       width="183.90983"
       height="315.71729"
       id="rect43903-2" />
    <rect
       x="599.41522"
       y="514.41522"
       width="209.52698"
       height="533.42448"
       id="rect43903-2-9" />
    <rect
       x="599.41522"
       y="514.41522"
       width="491.02031"
       height="253.03507"
       id="rect43903-2-9-8" />
    <rect
       x="67.392578"
       y="532.42383"
       width="466.40305"
       height="259.19357"
       id="rect168324-7" />
    <rect
       x="67.392578"
       y="532.42383"
       width="466.40305"
       height="259.19357"
       id="rect168324-7-0" />
  </defs>
  <g
     id="layer2"
     transform="translate(0,1.0583333)">
    <path
       id="path26129"
       style="fill:#e6e6e6;stroke-width:3.42108"
       transform="scale(0.26458333)"
       d="m 110.32422,32.753906 c -2.54939,0 -5.49708,1.394662 -6.55078,3.09961 -1.0537,1.705001 -4.994533,2.294133 -8.755862,1.310546 -5.683196,-1.486191 -6.83789,-0.102628 -6.83789,8.189454 0,10.006006 5.232002,18.189453 11.630859,18.189453 1.900563,0 1.597123,-1.824747 -0.683594,-4.105469 -5.708152,-5.708213 -5.133405,-13 1.025387,-13 7.14063,0 6.87119,19.12769 -0.30859,21.882812 -2.992195,1.148221 -6.734568,1.286237 -8.316406,0.308594 -4.982778,-3.079529 -7.550003,5.247209 -3.22461,10.458985 3.164852,3.813664 3.195691,6.113372 0.128907,9.808593 -2.738642,3.299819 -2.872193,5.527409 -0.419922,7.042969 1.972928,1.219351 3.58789,8.285887 3.58789,15.701167 0,7.41534 1.540309,13.48243 3.421875,13.48243 1.881604,0 3.419922,-2.65206 3.419922,-5.89258 0,-5.08431 1.029447,-4.86316 7.507814,1.61523 10.0755,10.07552 10.8108,8.09853 2.8164,-7.58203 -6.97342,-13.678051 -6.45899,-18.931639 1.85352,-18.931639 2.71131,0 4.92969,-1.538325 4.92969,-3.419922 0,-1.8816 -3.08054,-3.421875 -6.84375,-3.421875 -3.76317,0 -6.8418,-1.540278 -6.8418,-3.421875 0,-1.881596 2.69356,-3.429248 5.98633,-3.439453 5.07575,-0.01594 6.07336,-3.66034 6.54883,-23.947265 0.42479,-18.126271 -0.56303,-23.927735 -4.07422,-23.927735 z m 16.0039,0 c -3.74794,0 -2.90115,2.373506 3.14063,8.804688 7.62784,8.119427 7.80727,9.064277 2.30664,12.142578 -3.28095,1.836109 -5.96484,4.801745 -5.96484,6.589844 0,4.951767 4.28485,3.729169 13.33203,-3.804688 l 8.19922,-6.828125 -7.94141,-8.453125 c -4.36746,-4.649006 -10.2499,-8.451172 -13.07227,-8.451172 z m 24.34961,0 2.51954,13.78125 c 1.38617,7.580345 5.26628,16.818119 8.62304,20.527344 3.3568,3.709209 9.32951,6.694255 13.27149,6.634766 7.0377,-0.10684 7.04612,-0.198841 0.52539,-5.13086 -3.65242,-2.762566 -7.95659,-5.023437 -9.56641,-5.023437 -1.60978,0 -0.16188,-3.691043 3.21875,-8.201172 3.38064,-4.510114 7.30169,-7.496708 8.71289,-6.638672 3.09761,1.883267 3.32957,-3.134874 0.48828,-10.539063 -1.38391,-3.606409 -6.36583,-5.410156 -14.93554,-5.410156 z m 236.84571,0 c -9.90369,0 -4.09504,36.854025 6.48242,41.128906 3.96121,1.600921 7.58624,3.007974 8.05664,3.126954 0.47051,0.119255 0.85547,-1.321529 0.85547,-3.203125 0,-1.881597 -2.3085,-3.421875 -5.13086,-3.421875 -2.85094,0 -5.13281,-3.040602 -5.13281,-6.841797 0,-3.763193 -0.11451,-7.958102 -0.25586,-9.322266 -0.14109,-1.364149 1.6118,-3.103656 3.89648,-3.865234 2.28469,-0.761541 3.14548,0.248463 1.91211,2.24414 -2.07908,3.364033 3.6799,9.693177 6.37109,7.001953 3.52971,-3.529672 4.80331,-18.982917 1.92969,-23.410156 -2.85373,-4.396444 -4.04317,-4.157714 -8.47656,1.708985 -4.60603,6.095179 -5.17082,6.186121 -5.26758,0.839843 -0.0599,-3.292802 -2.41787,-5.986328 -5.24023,-5.986328 z m 41.93164,3.419922 c -0.29934,0 -0.74336,0.855861 -1.4336,2.566406 -0.94903,2.351989 -3.52164,4.277967 -5.71679,4.279297 -2.19523,0.0013 -4.20608,3.734917 -4.46875,8.298828 -0.33328,5.790244 0.9581,7.747577 4.27539,6.47461 2.61468,-1.003363 4.87723,0.265058 5.02539,2.818359 0.20141,3.461715 0.70744,3.553988 1.99414,0.365234 0.94904,-2.351997 4.29182,-4.398307 7.42773,-4.546874 3.77613,-0.178859 4.20996,-0.868659 1.28321,-2.042969 -3.39345,-1.361598 -3.4959,-2.887155 -0.4375,-6.572266 3.1392,-3.782498 2.80851,-4.798828 -1.56641,-4.798828 -3.05276,0 -5.67215,-1.923402 -5.82031,-4.275391 -0.10802,-1.710545 -0.26317,-2.566406 -0.5625,-2.566406 z m -264.91016,0.47461 c 0.45086,0.01684 0.93782,0.07662 1.46289,0.177734 3.29277,0.634144 5.98828,3.418606 5.98828,6.189453 0,2.770851 -2.69551,5.557319 -5.98828,6.191406 -4.20059,0.808963 -5.98633,-1.03875 -5.98633,-6.191406 0,-4.508531 1.36746,-6.48508 4.52344,-6.367187 z m 99.1211,0.708984 c -2.51027,0.257978 -3.72506,3.523315 -2.1211,7.703125 1.01247,2.638431 3.21618,4.796875 4.89649,4.796875 3.90914,0 3.99741,-9.275998 0.11132,-11.677734 -1.06808,-0.660114 -2.04996,-0.908259 -2.88671,-0.822266 z m 0.69921,26.185547 c -5.34227,0 -6.78797,4.046013 -2.85156,7.982422 3.93641,3.936415 7.98242,2.49072 7.98242,-2.851563 0,-2.822389 -2.30849,-5.130859 -5.13086,-5.130859 z m -138.5625,14.193359 c -5.33551,0.2147 -6.209,1.127526 -3.41015,2.964844 4.43127,2.908955 4.46007,3.800266 0.21875,6.529297 -3.92655,2.526538 -4.06763,4.175291 -0.70703,8.224609 2.46383,2.968781 3.2817,8.737272 1.97656,13.937502 -1.2271,4.87976 -1.20999,11.52721 0.0352,14.77148 h 0.002 c 1.8882,4.92062 2.7614,5.08991 5.27344,1.02539 1.65625,-2.67982 2.25392,-6.10052 1.32617,-7.60156 -0.92771,-1.50105 -0.22105,-2.72851 1.57031,-2.72851 1.79132,0 4.14158,2.30846 5.22461,5.13085 1.08307,2.82239 4.59526,5.13282 7.80469,5.13282 5.03794,0 4.81853,-1.08202 -1.60352,-7.91797 -8.6208,-9.17645 -10.35344,-24.723608 -2.41601,-21.677736 2.76214,1.059927 6.05495,0.257832 7.3164,-1.783203 1.47881,-2.392766 3.46654,-1.615144 5.59571,2.189453 2.13709,3.818574 2.10893,7.092046 -0.0781,9.279296 -4.26083,4.2608 -1.50994,15.46438 4.34961,17.71289 2.43446,0.9342 7.28786,1.15813 10.7832,0.49805 3.4953,-0.66008 7.3551,-1.31705 8.57813,-1.46094 1.2231,-0.14397 2.22265,-9.50765 2.22265,-20.80859 0,-18.852834 -0.67798,-20.718708 -8.23437,-22.615238 -4.96831,-1.246969 -11.57055,0.120044 -16.64258,3.44336 -9.18729,6.019748 -22.33398,7.387247 -22.33398,2.324219 0,-1.750734 3.46369,-3.850647 7.69726,-4.666016 4.23357,-0.81541 0.76991,-1.667079 -7.69726,-1.894531 -2.79884,-0.07518 -5.07306,-0.08115 -6.85157,-0.0098 z m 42.3418,7.259766 c 2.74027,0.400261 4.91336,3.625704 3.33594,7.736328 -1.05992,2.762135 -3.21201,5.021484 -4.78125,5.021484 -4.67288,0 -6.4253,-5.137482 -3.41406,-10.009765 1.36633,-2.210782 3.21521,-2.988204 4.85937,-2.748047 z m 220.03906,0.21875 c -0.70039,-0.08919 -1.23439,-0.0019 -1.54297,0.30664 -1.16887,1.168986 1.35783,4.566825 5.61524,7.548828 l 7.74023,5.421876 -7.6875,8.183592 c -4.22868,4.50107 -6.26457,8.13042 -4.52539,8.06836 4.39556,-0.15821 18.57999,-12.32744 18.44922,-15.828124 -0.13969,-3.732051 -13.14605,-13.076868 -18.04883,-13.701172 z m 41.07422,3.152344 c -0.72565,-0.0047 -1.87399,0.694375 -3.5625,2.095703 -2.52514,2.095748 -5.44759,2.952812 -6.49414,1.90625 -1.04655,-1.046635 -1.67308,2.046273 -1.39453,6.871093 0.27897,4.824816 2.43124,8.772106 4.7832,8.773436 2.352,10e-4 4.39872,1.9273 4.54688,4.2793 0.21607,3.42108 0.61367,3.42108 1.99414,0 0.94904,-2.35199 3.57746,-4.27734 5.83984,-4.27735 2.26239,1e-5 4.11328,-3.07861 4.11328,-6.84179 0,-3.76321 -1.97923,-6.841799 -4.39843,-6.841799 -2.41917,0 -4.39844,-1.727861 -4.39844,-3.839843 0,-1.412145 -0.30365,-2.120341 -1.0293,-2.125 z m 804.58399,3.751953 c -1.9189,0.852077 -3.0215,2.112139 -3.0215,3.923828 0,1.91627 1.3453,3.159268 3.4922,4.001951 -0.1659,-2.641388 -0.3145,-5.283729 -0.4707,-7.925779 z M 165.47266,104.5957 c 2.64624,0 4.8125,3.07861 4.8125,6.8418 0,3.76318 -1.3613,6.8418 -3.02344,6.8418 -1.66214,0 -3.82645,-3.07862 -4.81055,-6.8418 -1.16291,-4.44693 -0.10556,-6.8418 3.02149,-6.8418 z m -2.34766,24.09375 c -1.70796,-0.0603 -3.10352,1.49443 -3.10352,4.70117 0,2.66559 -1.92533,5.55162 -4.27734,6.41407 -3.42106,1.25438 -3.42106,2.47327 0,6.09961 2.35201,2.49311 4.27734,6.7981 4.27734,9.5664 0,2.76831 2.54808,7.85008 5.66211,11.29102 3.114,3.44095 8.11797,6.23147 11.11914,6.20312 3.46633,-0.0333 4.08257,-0.96977 1.69141,-2.5664 -5.82792,-3.89142 -12.18523,-17.66354 -9.87695,-21.39844 1.13884,-1.8427 4.2906,-3.35156 7.00195,-3.35156 2.71135,0 4.92969,-1.53833 4.92969,-3.41992 0,-1.8816 -2.35879,-3.42188 -5.24024,-3.42188 -2.88148,0 -6.124,-2.30847 -7.20703,-5.13086 -1.24746,-3.25082 -3.2686,-4.92606 -4.97656,-4.98633 z m 228.67578,0.12305 c -4.2336,0.14854 -5.77384,1.04703 -3.42187,1.99609 5.95661,2.40359 5.35826,7.99805 -0.85547,7.99805 -6.40135,0 -7.23652,27.31621 -1.02539,33.52734 2.25789,2.25792 8.03005,4.0819 12.82812,4.05469 l 8.72461,-0.0508 -8.55273,-4.30469 c -11.57001,-5.82232 -14.40598,-26.38476 -3.63867,-26.38476 3.9938,0 7.05859,2.22744 7.05859,5.13086 0,2.82239 1.54024,5.13281 3.42187,5.13281 1.8816,0 3.42188,-2.00075 3.42188,-4.44531 0,-3.07811 3.73715,-4.00847 12.1582,-3.02539 10.11734,1.18115 11.98556,2.64761 11.11914,8.72265 -0.72638,5.09343 -3.88629,7.6277 -10.44922,8.38282 -12.84687,1.47811 -12.28496,9.77303 0.60157,8.88085 5.5056,-0.38116 11.66474,-1.71592 13.68554,-2.96484 4.63847,-2.86682 4.87224,-39.49805 0.25196,-39.49805 -1.8816,0 -3.41993,1.43467 -3.41993,3.18946 0,4.97069 -12.78269,7.815 -24.02539,5.3457 -5.6025,-1.23052 -10.18554,-4.42477 -10.18554,-7.09766 0,-2.83909 -3.20046,-4.74756 -7.69727,-4.58984 z m -257.58789,3.15234 c -9.01117,0 -15.25049,1.13428 -13.86328,2.52149 1.38721,1.38723 4.97662,2.54184 7.97461,2.5664 2.99803,0.024 6.09563,1.96832 6.88476,4.32032 0.90185,2.6878 -1.84755,4.27539 -7.40234,4.27539 -4.86079,0 -8.83789,1.54029 -8.83789,3.42187 0,1.8816 3.95618,3.41992 8.79102,3.41992 7.15946,0 8.58762,1.42821 7.69726,7.69727 -0.60122,4.2336 -3.01717,7.88984 -5.36914,8.125 -10.06614,1.00662 -11.11914,1.45293 -11.11914,4.70508 0,1.88159 2.95319,3.41992 6.5625,3.41992 12.45207,0 17.38477,-3.98534 17.38477,-14.04883 0,-5.44347 1.72787,-9.89844 3.83984,-9.89844 2.65304,0 2.52447,-1.58543 -0.41797,-5.13085 -3.3978,-4.09406 -3.3978,-6.16961 0,-10.26368 3.68482,-4.43999 2.0506,-5.13086 -12.125,-5.13086 z m -32.34961,13.6836 c -7.52637,0 -13.683592,1.54029 -13.683592,3.42187 0,1.8816 6.157222,3.41992 13.683592,3.41992 7.52638,0 13.68359,-1.53832 13.6836,-3.41992 0,-1.88158 -6.15722,-3.42187 -13.6836,-3.42187 z m 0,34.21094 c -1.929812,-10e-6 -3.421874,9.69235 -3.421874,22.23632 0,12.54397 1.492062,22.23828 3.421874,22.23828 1.92986,0 3.41992,-9.69431 3.41992,-22.23828 0,-12.54397 -1.49006,-22.23632 -3.41992,-22.23632 z m 166.125,0 c -6.47452,-10e-6 -12.72381,1.54027 -13.88672,3.42187 -1.19918,1.94028 1.67539,3.41992 6.64063,3.41992 5.5012,0 8.7539,1.90825 8.7539,5.13281 0,3.19302 -3.23103,5.13086 -8.55273,5.13086 -7.63544,0 -8.55273,1.40564 -8.55274,13.11328 0,7.21279 1.0998,14.21502 2.44336,15.5586 3.78302,3.78303 22.52385,0.90542 24.03125,-3.68945 0.86066,-2.62344 -2.1191,-3.85218 -8.28906,-3.41993 -8.17436,0.57269 -9.63281,-0.6212 -9.63281,-7.8789 0,-6.78709 1.9424,-8.7757 9.4082,-9.63477 7.8792,-0.9066 9.40821,-2.71391 9.40821,-11.11914 0,-9.15624 -1.03158,-10.03515 -11.77149,-10.03515 z m -130.79883,0.4746 c -1.53845,-0.0746 -3.18643,-0.0361 -4.89453,0.12696 l -11.61523,1.10937 v 20.52539 20.52735 h 13.68359 c 13.63372,0 13.69196,-0.0566 15.73633,-15.39453 1.71247,-12.84778 2.13762,-13.54103 2.56641,-4.19141 0.38637,8.42532 2.55225,11.97768 8.73437,14.32812 4.52125,1.71895 9.23026,4.76016 10.46484,6.75782 4.15857,6.72867 9.11151,3.98076 5.38282,-2.98633 -1.94779,-3.63949 -3.54297,-9.79669 -3.54297,-13.6836 0,-8.58455 -9.13735,-9.45593 -11.32617,-1.08007 -0.96253,3.68335 -1.71678,2.36625 -1.96094,-3.42188 -0.34844,-8.26081 0.8554,-9.4082 9.86719,-9.4082 5.64477,0 10.26367,-1.65403 10.26367,-3.67774 0,-2.22804 -6.16012,-3.30217 -15.61524,-2.7207 -9.90732,0.60925 -16.604,-0.63903 -18.32031,-3.41601 -1.19337,-1.93094 -4.80846,-3.17066 -9.42383,-3.39454 z m -63.357419,3.21485 c -1.717757,-0.15339 -2.794828,1.74161 -2.867187,5.71875 -0.09881,5.43631 -0.566854,5.38067 -5.095703,-0.60547 -5.619704,-7.42817 -7.484212,-6.73528 -8.539063,3.17187 -1.57957,14.83609 0.302559,25.41196 5.435547,30.54493 2.956762,2.95679 7.573745,5.375 10.261719,5.375 3.583975,0 3.064473,-1.82422 -1.953125,-6.8418 -7.408679,-7.40874 -8.871255,-15.44853 -3.421875,-18.81641 1.881566,-1.16289 3.421875,0.28726 3.421875,3.22071 0,7.36837 4.358674,6.67274 9.46875,-1.50977 3.416606,-5.47087 3.416606,-8.21272 0,-13.68359 -2.63473,-4.21889 -4.993181,-6.42083 -6.710938,-6.57422 z m 60.144529,0.97461 c 1.21835,-0.076 2.06505,0.98475 2.04492,2.83203 -0.0288,2.46303 -1.54511,6.78699 -3.36914,9.60937 -2.69603,4.17193 -3.32654,3.73046 -3.36914,-2.36328 -0.0288,-4.12255 1.48758,-8.4484 3.36914,-9.61133 0.47041,-0.29072 0.91811,-0.44147 1.32422,-0.46679 z m 268.35742,2.17773 c -2.85875,0 -7.99837,3.09601 -11.42187,6.87891 -6.04301,6.67745 -5.99192,7.12546 1.76367,15.38086 4.39359,4.67685 8.7894,7.70277 9.76758,6.72461 0.97814,-0.97819 -0.80249,-4.35913 -3.95703,-7.51367 -5.36682,-5.3668 -5.26124,-6.2422 1.65429,-13.60352 5.70739,-6.07525 6.20715,-7.86719 2.19336,-7.86719 z m 76.78125,0 -0.20312,14.54102 c -0.11138,7.99678 0.57973,17.31799 1.53516,20.71484 1.33791,4.75639 4.54684,5.93524 13.96289,5.13086 l 12.22656,-1.04297 1.04297,-19.67187 1.04297,-19.67188 h -14.80274 z m 14.7461,6.8418 c 5.54063,0 8.31255,1.59639 7.42969,4.27734 -2.16681,6.57938 -16.26758,7.52749 -16.26758,1.09375 0,-3.493 3.08874,-5.37109 8.83789,-5.37109 z m 88.29883,0.85351 c -0.96726,0.52756 -0.68394,4.52341 0.14257,8.76954 0.0473,-2.88661 0.0882,-5.7735 0.13477,-8.66016 -0.0812,10e-4 -0.20789,-0.14726 -0.27734,-0.10938 z m -155.29493,2.56836 c -7.5264,0 -13.68359,1.54028 -13.68359,3.42188 0,1.88158 6.15719,3.41992 13.68359,3.41992 7.52637,0 13.68555,-1.53834 13.68555,-3.41992 0,-1.8816 -6.15918,-3.42188 -13.68555,-3.42188 z m -288.5957,4.46875 c 0.85177,-0.087 1.14792,1.94691 1.17383,6.44727 0.0288,5.06334 -1.48758,10.15739 -3.36914,11.32031 -4.36835,2.6998 -4.36835,-8.63496 0,-15.39453 0.97272,-1.50515 1.68425,-2.32084 2.19531,-2.37305 z m 355.81836,6.58399 c 3.997,0.25068 8.04102,2.44981 8.04102,5.54687 0,4.53669 -13.29518,7.3249 -15.77735,3.3086 -1.15506,-1.86889 -0.48895,-5.00907 1.47852,-6.97657 1.47897,-1.47898 3.85961,-2.02931 6.25781,-1.8789 z m -575.716796,0.39453 c -0.518508,-0.0785 -0.873878,1.17125 -0.976563,3.66211 -0.148558,3.60639 0.660065,5.62705 1.796875,4.49023 1.13695,-1.1368 1.257774,-4.08705 0.269532,-6.55664 -0.409533,-1.02342 -0.77874,-1.54859 -1.089844,-1.5957 z m 512.771486,19.39453 c -7.30023,0.14905 -9.33996,7.09195 -8.27735,28.17188 0.86083,17.07818 2.42466,23.09179 6.00391,23.09179 3.74211,0 4.83789,-5.81953 4.83789,-25.6582 0,-14.11196 -1.15325,-25.63382 -2.56445,-25.60547 z m -296.26563,1.40039 c -4.55379,-0.653 -9.74557,4.94244 -7.19922,9.0625 1.50883,2.44106 2.36358,12.61945 1.90039,22.61914 -0.67667,14.61001 0.21418,18.18164 4.53711,18.18164 4.37553,0 5.37891,-4.43297 5.37891,-23.74609 0,-13.06012 -1.22749,-24.50391 -2.72852,-25.43164 -0.59995,-0.37083 -1.23813,-0.59226 -1.88867,-0.68555 z m -22.5332,1.96875 c -2.0008,0 -3.66249,1.9234 -3.68555,4.27539 -0.0257,2.35199 -1.0281,7.9481 -2.22851,12.4336 -1.62725,6.0805 -0.96379,7.75372 2.61133,6.57812 5.6301,-1.85132 8.67042,-23.28711 3.30273,-23.28711 z m -44.207031,0.35156 c -4.902459,0.41382 -9.293958,2.93266 -12.007813,7.24219 -2.998722,4.7619 -1.602703,8.05128 7.330078,17.26758 13.460591,13.88779 13.673111,16.0659 1.626954,16.64258 -8.329943,0.39875 -8.03535,0.71353 2.566406,2.75781 20.52397,3.95752 22.640548,-1.62116 6.673828,-17.58789 -10.448247,-10.44828 -12.307904,-22.7514 -3.048828,-20.16602 2.710658,0.75683 7.621255,1.47156 10.914062,1.58789 4.461169,0.15814 5.988282,3.11741 5.988282,11.60938 -10e-7,11.22 12.261422,28.18945 20.369142,28.18945 5.38462,0 4.41709,-2.2704 -4.97461,-11.66211 -5.962552,-5.96252 -8.552736,-12.29064 -8.552736,-20.89648 0,-9.758 -1.255711,-12.18912 -5.988281,-11.60352 -3.292807,0.40746 -8.590535,-0.39605 -11.773437,-1.78515 -3.056504,-1.33396 -6.181572,-1.84399 -9.123047,-1.59571 z m 91.847661,0.39063 c -1.99914,-0.10811 -3.38477,1.98089 -3.38477,5.33789 0,3.65738 -0.97921,13.79169 -2.17578,22.52148 -1.42349,10.38551 -0.90364,15.87305 1.50195,15.87305 3.10628,0 5.36997,-9.75128 8.65625,-37.27734 0.31367,-2.62719 -1.35307,-5.44913 -3.70508,-6.27149 -0.3084,-0.10784 -0.60704,-0.16815 -0.89257,-0.18359 z m 12.55078,0.65234 c -3.44733,-0.58808 -2.76448,25.46324 1.29101,33.04102 1.94782,3.63949 4.31062,6.61719 5.25,6.61719 2.75688,0 -2.5111,-35.6097 -5.79492,-39.17188 -0.26675,-0.28936 -0.51627,-0.44712 -0.74609,-0.48633 z m 97.87304,0.79688 c -0.53041,-0.17234 -1.08845,0.0377 -1.67578,0.625 -2.34935,2.34931 -2.12387,9.09381 0.69727,20.85351 2.29342,9.56014 5.65978,17.38282 7.48047,17.38282 1.82041,0 2.54919,-2.69355 1.61914,-5.98633 -0.93018,-3.29281 -2.73373,-12.67825 -4.00782,-20.85547 -1.17546,-7.54398 -2.52204,-11.50252 -4.11328,-12.01953 z m -10.45508,1.23047 c -4.34859,0 -7.45764,11.95577 -7.51562,28.9082 -0.0644,18.6226 5.51488,11.41686 8.47852,-10.94922 1.46256,-11.03738 1.09153,-17.95898 -0.9629,-17.95898 z m 136.12305,0 c -13.68053,0 -13.68359,0.004 -13.68359,13.65429 0,9.95029 1.85607,14.81411 6.8418,17.92774 3.7631,2.35014 6.84179,6.30432 6.84179,8.78515 0,7.30543 5.87619,1.53471 9.74805,-9.57226 2.83903,-8.14396 2.61434,-10.26953 -1.08789,-10.26953 -2.5677,0 -5.37388,1.92535 -6.23633,4.27734 -2.42842,6.62298 -10.16826,-2.18148 -8.70312,-9.90039 0.75686,-3.98756 4.69472,-6.75386 10.58398,-7.43359 14.44585,-1.66736 11.10214,-7.46875 -4.30469,-7.46875 z m 97.00781,4.41211 c -0.49987,-0.13547 -0.84474,0.9472 -0.94726,3.17773 -0.17325,3.77238 -2.10991,5.17355 -5.40234,3.91016 -2.82241,-1.08305 -5.13086,-0.26455 -5.13086,1.81836 0,2.0829 1.92339,3.90806 4.27539,4.05664 3.42111,0.21605 3.42111,0.61565 0,1.99609 -5.95661,2.40358 -5.35823,7.99609 0.85547,7.99609 2.82233,0 5.2538,1.92535 5.40234,4.27735 0.21611,3.42107 0.61566,3.42107 1.99609,0 0.94904,-2.352 3.74243,-4.27735 6.20899,-4.27735 2.63414,0 4.28207,-3.52661 3.99218,-8.54882 -0.27129,-4.70266 -2.28918,-8.5514 -4.48437,-8.55274 -2.19519,-0.001 -4.76772,-1.9273 -5.7168,-4.2793 -0.39279,-0.9734 -0.7489,-1.49293 -1.04883,-1.57421 z m -574.712886,0.1914 c -0.51851,-0.0785 -0.873878,1.1732 -0.976563,3.66406 -0.148558,3.6064 0.660069,5.62705 1.796875,4.49024 1.13695,-1.1368 1.257777,-4.08907 0.269532,-6.55859 -0.409519,-1.02342 -0.778739,-1.5486 -1.089844,-1.59571 z m 227.966796,43.29102 c -1.88164,0 -3.42187,3.07861 -3.42187,6.84179 0,3.7632 1.54023,6.8418 3.42187,6.8418 1.88157,0 3.41992,-3.0786 3.41992,-6.8418 0,-3.76318 -1.53835,-6.84179 -3.41992,-6.84179 z m 242.89649,3.41992 c -1.8816,0 -3.42188,3.72335 -3.42188,8.27344 0,4.55009 -0.93404,10.70926 -2.07617,13.68554 -1.26921,3.30749 -0.25952,5.41016 2.59765,5.41016 2.5711,0 6.59708,3.07862 8.94727,6.8418 4.66209,7.46523 28.16406,9.98835 28.16406,3.02343 0,-2.25275 -3.58934,-3.13422 -8.74609,-2.14843 -13.45153,2.57169 -25.35061,-12.19168 -13.49219,-16.74219 7.88024,-3.02394 6.3444,-11.17631 -1.70898,-9.07031 -4.75847,1.24436 -6.84375,0.10413 -6.84375,-3.74219 0,-3.04186 -1.53839,-5.53125 -3.41992,-5.53125 z m -295.255864,0.28516 c -0.2414,-0.009 -0.427006,0.0442 -0.550782,0.16796 -0.990168,0.99021 1.093948,4.75711 4.63086,8.3711 6.295636,6.43285 6.281656,6.73381 -0.611328,14.26953 -8.631054,9.43588 -2.781488,10.17771 8.312504,1.05469 l 8.07617,-6.64063 -9.30274,-9.42773 c -4.47769,-4.5368 -8.864884,-7.73047 -10.554684,-7.79492 z m 175.558594,0.47656 c -1.41531,-0.0898 -2.70181,0.5319 -4.02344,1.85351 -2.03108,2.03116 -5.81512,2.87987 -8.4082,1.88477 -3.64958,-1.40047 -4.71484,2.3939 -4.71485,16.80078 10e-6,10.23648 1.02686,19.63823 2.28126,20.89258 4.57458,4.57466 8.64691,2.12339 6.15429,-3.70508 -5.81435,-13.59505 -5.93737,-24.80273 -0.27148,-24.80273 3.29772,0 5.51953,2.84435 5.51953,7.0664 0,8.45586 5.88679,20.30274 10.08789,20.30274 1.652,0 1.24739,-4.65113 -0.89844,-10.33594 -2.95264,-7.82245 -2.91707,-11.91207 0.14453,-16.81445 3.23181,-5.17491 3.01487,-7.33356 -1.07812,-10.73047 -1.83356,-1.5217 -3.37766,-2.32236 -4.79297,-2.41211 z m 223.19727,3.00781 c -0.33228,0.0836 -0.48598,1.28792 -0.59766,3.64453 -0.1485,3.136 -2.02024,6.28339 -4.1582,6.9961 -2.76133,0.92046 -2.51349,3.51353 0.85546,8.95312 3.64483,5.88497 4.99945,6.44258 5.84961,2.41016 0.60836,-2.8857 3.68699,-5.29598 6.8418,-5.35547 5.20154,-0.0987 5.23066,-0.49599 0.30469,-4.27539 -2.98749,-2.29216 -6.33024,-6.47644 -7.42774,-9.29883 -0.82476,-2.12094 -1.33575,-3.15785 -1.66796,-3.07422 z m -422.521489,0.008 c -0.326698,-0.0838 -0.827441,0.95069 -1.632813,3.06641 -1.074391,2.82238 -3.646938,6.40259 -5.716797,7.95703 -2.678298,2.01132 -2.531568,3.32768 0.511719,4.5625 2.352045,0.95436 4.398302,4.29957 4.546875,7.43555 0.222686,4.70165 0.613869,4.80174 2.224609,0.57031 1.074392,-2.8224 3.646943,-6.40259 5.716797,-7.95703 2.678223,-2.01133 2.529657,-3.32768 -0.513672,-4.5625 -2.351966,-0.95435 -4.398301,-4.29955 -4.546875,-7.43555 -0.111362,-2.35082 -0.263146,-3.55294 -0.589843,-3.63672 z m 76.124999,16.75 c -3.8052,0 -4.72203,14.66471 -1.14062,18.2461 3.58136,3.58144 18.24609,2.66459 18.24609,-1.14063 0,-1.88159 -3.08058,-3.42187 -6.84375,-3.42187 -4.56144,0 -6.8418,-2.28037 -6.8418,-6.8418 0,-3.76319 -1.53835,-6.8418 -3.41992,-6.8418 z m 25.90039,11.87891 c -3.20737,0.033 -5.375,2.18165 -5.375,5.79687 0,1.56798 3.07859,2.85157 6.8418,2.85157 7.84426,0 9.18454,-5.21145 2.04492,-7.95118 -1.25842,-0.48283 -2.4426,-0.70826 -3.51172,-0.69726 z m 263.17969,1.80469 c -2.82244,0 -5.13086,1.54028 -5.13086,3.42187 0,1.8816 2.30842,3.42188 5.13086,3.42188 2.82236,0 5.13281,-1.54028 5.13281,-3.42188 0,-1.88159 -2.31045,-3.42187 -5.13281,-3.42187 z m -301.05469,10.26367 c -2.82241,0 -5.13086,1.54028 -5.13086,3.42187 0,1.8816 -2.31044,3.41993 -5.13281,3.41993 -5.96427,0 -6.54226,4.65748 -1.70117,13.70312 2.29304,4.28463 2.29304,7.11203 0,8.5293 -5.42071,3.35018 -3.99047,9.50433 1.70117,7.32031 3.44905,-1.32352 5.13281,0.15754 5.13281,4.51563 0,3.56605 -2.69547,7.19358 -5.98828,8.0625 -3.29281,0.86881 -1.75249,1.41711 3.42188,1.21679 6.45855,-0.25024 9.4082,-2.20115 9.4082,-6.22265 0,-3.39531 3.23586,-6.42411 7.69726,-7.20508 7.43068,-1.29986 7.46051,-1.44959 0.85547,-4.30274 -6.99498,-3.02176 -15.09208,-11.60652 -15.28711,-16.20898 -0.0599,-1.41115 4.50949,-2.56445 10.1543,-2.56445 5.64477,0 10.26367,-1.54028 10.26367,-3.42188 0,-1.88158 -2.30845,-3.42187 -5.13086,-3.42187 -2.82237,0 -5.13281,-1.53833 -5.13281,-3.41993 0,-1.88159 -2.30849,-3.42187 -5.13086,-3.42187 z m 287.1582,0 c -5.81688,0 -7.56593,1.45908 -6.15625,5.13281 1.0831,2.8224 0.26448,5.13086 -1.81835,5.13086 -2.0829,0 -3.78711,-2.30846 -3.78711,-5.13086 0,-8.70375 -8.09838,-5.70241 -17.96094,6.6582 -11.6465,14.59642 -11.84283,19 -0.85352,19 6.77329,0 8.55274,1.72623 8.55274,8.30079 0,5.02978 -2.36111,8.91939 -5.98828,9.86718 -3.29284,0.86102 -1.06682,1.74248 4.94531,1.96094 10.6783,0.38763 10.954,0.0209 11.97265,-15.85352 1.50172,-23.40378 6.4648,-20.00533 7.49219,5.13086 0.48068,11.75991 -0.38812,21.38282 -1.93164,21.38282 -1.54356,0 -2.80664,2.30849 -2.80664,5.13086 0,2.8224 1.54031,5.13281 3.42188,5.13281 1.8816,0 3.41992,2.37925 3.41992,5.28711 0,2.90797 3.94173,9.22884 8.75976,14.04687 4.81799,4.81803 9.62121,7.90081 10.67188,6.84961 1.05078,-1.05086 -0.66398,-4.48432 -3.81055,-7.63086 -6.36884,-6.36884 -5.84231,-20.74423 0.71094,-19.4082 2.30732,0.4704 4.19531,-1.45494 4.19531,-4.27734 0,-2.82237 -1.93883,-5.13086 -4.30859,-5.13086 -5.61211,0 -13.66066,-12.94063 -10.86328,-17.4668 1.35212,-2.1879 4.60879,-1.29468 8.66797,2.37891 7.92088,7.16829 8.10908,5.67198 1.05664,-8.46485 -5.53274,-11.09064 -4.28144,-23.1099 2.00195,-19.22656 1.89486,1.17111 3.44531,-0.45063 3.44531,-3.60352 0,-4.13835 -1.99809,-5.20905 -7.18164,-3.85351 -5.80229,1.51732 -6.84801,0.6091 -5.45117,-4.73242 1.35008,-5.16281 -0.0507,-6.61133 -6.39649,-6.61133 z m -254.6582,3.42187 c -7.52641,0 -13.68359,1.53833 -13.68359,3.41993 0,1.88159 6.15718,3.42187 13.68359,3.42187 7.52638,0 13.68555,-1.54028 13.68555,-3.42187 0,-1.8816 -6.15917,-3.41993 -13.68555,-3.41993 z m -65.22851,0.004 c -7.400457,0 -13.457036,1.54028 -13.457036,3.42188 0,1.88153 3.080543,3.41992 6.84375,3.41992 9.755426,0 8.478386,5.73187 -1.710937,7.67968 -6.645188,1.27031 -8.552734,0.21514 -8.552735,-4.73242 10e-7,-5.28149 -2.669301,-6.36719 -15.648437,-6.36718 H 53.460938 l 0.796874,17.96093 c 0.43804,9.87843 1.359503,19.03014 2.048829,20.33789 0.689363,1.30787 12.100062,2.27965 25.357421,2.15039 22.777868,-0.21422 24.294078,-0.72072 27.558598,-9.21875 1.90006,-4.94627 3.99712,-14.76628 4.66015,-21.82226 l 1.20703,-12.83008 z m 172.43945,3.41602 c -2.95043,0 -4.57813,4.25648 -4.57813,11.9746 0,8.25235 1.56237,11.97461 5.02735,11.97461 3.55062,0 4.89598,-3.51809 4.57812,-11.97461 -0.28172,-7.49383 -2.1626,-11.9746 -5.02734,-11.9746 z m -18.26172,0.006 c -5.11602,0 -4.30647,36.70423 0.85547,38.7871 2.35196,0.94848 8.12415,1.72461 12.82812,1.72461 h 8.55274 l -9.40821,-3.43554 c -8.52155,-3.1124 -9.4082,-5.02019 -9.4082,-20.25586 0,-9.25117 -1.53832,-16.82032 -3.41992,-16.82031 z m -187.681641,7.40234 c 3.795967,0.2551 7.863874,2.1361 8.947266,5.42578 0.882913,2.68094 -1.889103,4.27734 -7.429687,4.27734 -5.749149,0 -8.837891,-1.87614 -8.837891,-5.36914 0,-3.21686 3.524345,-4.58908 7.320312,-4.33398 z m 329.742191,0.64258 c 1.29406,-0.1908 1.625,1.42335 1.625,5.21484 0,4.17354 -2.18323,7.26172 -5.13282,7.26172 -2.8224,0 -5.13086,-1.35075 -5.13085,-3.00195 0,-1.65122 2.30845,-4.91935 5.13085,-7.26172 1.60774,-1.33431 2.73138,-2.09842 3.50782,-2.21289 z m -231.00977,2.21875 c -7.52641,0 -13.68359,1.53833 -13.68359,3.41992 0,1.88159 1.53832,3.42187 3.41992,3.42187 1.8816,0 3.42187,2.30849 3.42187,5.13086 0,2.82238 3.135,8.26778 6.9668,12.09961 3.83185,3.83156 8.39438,6.0842 10.13867,5.00586 1.74433,-1.07811 0.14961,-4.98322 -3.54492,-8.67773 -8.59381,-8.59345 -8.54947,-13.5586 0.12305,-13.5586 3.76317,0 6.84375,-1.54028 6.84375,-3.42187 0,-1.88159 -6.15917,-3.41992 -13.68555,-3.41992 z m -73.552733,6.84179 c 6.842193,0 8.552733,1.71063 8.552733,8.55274 0,6.84221 -1.71054,8.55273 -8.552733,8.55273 -6.842154,0 -8.552734,-1.71052 -8.552735,-8.55273 0,-6.84211 1.710581,-8.55274 8.552735,-8.55274 z M 65.917969,359.75 c 4.845346,-0.4867 12.215802,2.4854 11.095703,5.8457 h 0.002 c -1.535769,4.60738 -12.193899,6.14831 -14.681641,2.12305 -1.060509,-1.71401 -1.065408,-4.51184 -0.01172,-6.2168 0.645429,-1.04433 1.980587,-1.58972 3.595703,-1.75195 z m -147.546875,6.03516 c -0.51851,-0.0785 -0.873878,1.17324 -0.976563,3.66406 -0.148558,3.6071 0.660069,5.62676 1.796875,4.49023 1.13695,-1.13681 1.257777,-4.08895 0.269532,-6.55859 -0.409519,-1.02343 -0.778739,-1.5486 -1.089844,-1.5957 z m 148.77539,16.1875 c -4.522358,-0.0182 -8.832975,0.85839 -10.876953,2.90234 -2.613003,2.61264 -0.516476,3.66992 7.277344,3.66992 7.450371,0 10.947266,1.64049 10.947266,5.13281 0,3.15519 -3.205474,5.13086 -8.322266,5.13086 -11.328393,0 -15.319364,14.19902 -7.507813,26.70899 3.271541,5.23944 19.859709,4.12514 21.689454,-1.45703 0.798807,-2.43742 -2.001539,-3.20522 -7.705078,-2.11524 -8.117084,1.55176 -8.852183,0.81494 -7.832032,-7.83984 0.739227,-6.27145 3.357687,-9.87348 7.625,-10.48633 3.574802,-0.51371 7.784728,-2.96032 9.355469,-5.4375 1.997303,-3.14974 2.994289,-1.93261 3.314453,4.04883 0.251074,4.704 0.303745,9.61888 0.117188,10.92187 -0.512055,3.57245 16.886514,16.44532 22.226564,16.44532 7.22699,0 5.52202,-4.84585 -3.02539,-8.59571 -12.944677,-5.67915 -11.586878,-28.71067 1.70898,-28.98242 1.41116,-0.0287 2.56641,3.0259 2.56641,6.78906 0,3.76317 1.64188,6.8418 3.64844,6.8418 2.00663,0 3.16183,-4.2338 2.5664,-9.4082 -0.94149,-8.18238 -2.64263,-9.45451 -13.05664,-9.76367 -6.585566,-0.19563 -13.985172,1.22123 -16.443358,3.14648 -3.259484,2.55273 -4.186288,2.18531 -3.421875,-1.35547 0.809473,-3.7492 -7.314298,-6.26657 -14.851563,-6.29687 z m 97.044926,0 c -5.11484,0.14857 -7.3774,1.04698 -5.02539,1.99609 5.95667,2.40351 5.35828,7.99805 -0.85547,7.99805 -3.60202,0 -5.13086,3.63474 -5.13086,12.19726 0,14.5499 5.17493,25.4336 12.09375,25.4336 2.75622,0 5.01172,1.54031 5.01172,3.42187 0,7.54243 -18.15701,2.9841 -29.05274,-7.29297 -8.16614,-7.70256 -11.98833,-14.91331 -13.59961,-25.6582 -1.23262,-8.2196 -3.68679,-14.94531 -5.45312,-14.94531 -6.36604,0 -3.09033,23.17352 4.95117,35.02343 7.36952,10.86017 7.53625,11.86506 1.71094,10.3418 -3.54893,-0.92814 -6.45313,-0.0823 -6.45313,1.88086 0,1.96305 2.69552,4.27364 5.98828,5.13477 4.62286,1.20752 4.278,1.65441 -1.50976,1.96093 -4.12252,0.21827 -8.52883,2.06972 -9.79297,4.11524 -1.54602,2.50178 -3.42829,2.5893 -5.75,0.26758 -4.52536,-4.52527 -12.882814,-1.19421 -12.882814,5.13476 0,2.73676 -1.538318,4.01595 -3.419922,2.85352 -1.881566,-1.16296 -3.421875,-0.48483 -3.421875,1.50781 0,1.99264 1.540309,3.62305 3.421875,3.62305 1.881604,0 3.419922,2.31041 3.419922,5.13281 0,7.18545 4.412684,6.38825 9.470704,-1.71094 5.8695,-9.39881 14.47656,-8.77036 14.47656,1.05664 0,9.94039 6.30438,18.10955 16.25195,21.06446 8.39597,2.49407 10.66316,-2.90714 3.11133,-7.41211 -2.52233,-1.50478 -5.42645,-6.07988 -6.45312,-10.16797 -1.58525,-6.31212 -0.50659,-7.34545 7.15234,-6.84375 4.96017,0.32492 11.12514,2.58971 13.70117,5.03125 6.51556,6.17552 8.10344,3.27763 4.04883,-7.38672 -2.7477,-7.22714 -2.42532,-9.02734 1.61524,-9.02735 3.60739,10e-6 5.04687,3.90451 5.04687,13.68555 0,12.43397 -0.80787,13.6836 -8.83789,13.6836 -11.70782,0 -9.05839,8.19359 3.11523,9.63476 12.15527,1.43898 11.76926,10.16568 -0.50976,11.5293 -9.0967,1.01027 -9.48536,1.71406 -6.74414,12.1914 1.59991,6.11513 4.4332,11.11914 6.29687,11.11915 1.90602,-10e-6 2.44975,-3.74174 1.24219,-8.55274 -1.62329,-6.4676 -0.80555,-8.55273 3.35547,-8.55273 4.00785,0 5.50391,3.25132 5.50391,11.97265 0,10.49133 -1.05895,11.97461 -8.55274,11.97461 -4.7024,0 -8.55016,1.54117 -8.55273,3.42188 0.003,1.88078 5.22945,3.41992 11.61719,3.41992 h 11.61718 l 2.45899,-27.7793 c 1.84371,-20.82879 1.38192,-28.4454 -1.84766,-30.4414 -3.35092,-2.07107 -3.46634,-5.99819 -0.52344,-17.68555 4.63883,-18.42259 2.52946,-27.68493 -7.2832,-31.99219 -5.06378,-2.22281 -7.83349,-6.88428 -8.55859,-14.4043 -0.8965,-9.29797 0.0832,-11.11914 5.98632,-11.11914 3.88237,0 7.0586,2.21837 7.0586,4.92969 0,2.71132 1.54027,5.88058 3.42187,7.04297 1.99593,1.23356 3.42188,-2.24405 3.42188,-8.34961 0,-7.33138 -1.64678,-10.46484 -5.49805,-10.46484 -3.48164,0 -4.77631,-1.88337 -3.5293,-5.13282 1.46526,-3.81811 -0.40941,-5.06277 -7.33007,-4.86132 z m 334.07617,3.15039 c -4.08458,0 -3.7539,18.04575 0.53711,29.33203 1.93428,5.08751 4.32058,8.44752 5.30273,7.46484 2.84515,-2.84515 -2.54315,-36.79687 -5.83984,-36.79687 z m -9.72656,0.002 c -1.9344,0 -3.51758,0.55824 -3.51758,1.24219 0,0.68402 -1.52998,9.31314 -3.40039,19.17578 -1.87049,9.86256 -2.38595,19.57267 -1.14649,21.57812 2.94051,4.7579 6.61197,-5.35524 9.39453,-25.87304 1.38063,-10.18061 0.89059,-16.12305 -1.33007,-16.12305 z m -343.91407,2.7207 c -1.88156,-0.556 -3.91688,4.37733 -4.52148,10.96289 -0.72391,7.88557 0.0526,10.80579 2.27148,8.55274 4.77748,-4.85114 6.32918,-18.31056 2.25,-19.51563 z m -75.263669,48.59571 c -6.585577,0 -11.974609,1.53836 -11.974609,3.41992 0,1.8816 5.389032,3.42187 11.974609,3.42187 6.585536,0 11.972657,-1.54027 11.972657,-3.42187 0,-1.88156 -5.387121,-3.41992 -11.972657,-3.41992 z m 419.275389,0.002 c -4.72252,0 -6.09906,4.09591 -8.33594,24.80273 -1.68419,15.58965 2.43826,22.69987 5.95118,10.26368 4.74141,-16.78504 5.98488,-35.06641 2.38476,-35.06641 z m 10.07031,0 c -5.06895,0 -4.14783,15.58332 1.75586,29.71289 v 0.002 c 5.89164,14.09995 10.55723,13.75415 5.18164,-0.38476 -1.93421,-5.08736 -3.51757,-13.76864 -3.51757,-19.29102 0,-5.5223 -1.53833,-10.03906 -3.41993,-10.03906 z m -354.05468,1.11523 c 0.89331,0.21958 2.02766,1.68755 2.86328,3.86524 2.31327,6.02827 0.34209,7.08902 -3.03125,1.63086 -1.24022,-2.00674 -1.52169,-4.38196 -0.625,-5.2793 0.22419,-0.22417 0.4952,-0.28999 0.79297,-0.2168 z m 289.60742,1.11914 c -2.48028,-0.0356 -5.68039,0.13756 -9.00195,0.52539 l -12.07813,1.41016 v 20.15039 0.002 20.15235 h 13.68359 13.68555 v -19.95703 c 0,-10.97609 -0.72415,-20.67934 -1.60742,-21.5625 -0.44162,-0.44219 -2.20136,-0.68514 -4.68164,-0.72071 z m -181.8711,1.18555 v 13.79297 c 10e-6,10.0159 1.63844,14.39417 5.98633,15.99219 3.29277,1.21039 7.21795,4.24041 8.72266,6.73437 1.50468,2.49385 5.2776,4.53321 8.38281,4.53321 4.39123,0 4.73398,-0.91257 1.54102,-4.10547 -2.25796,-2.25797 -4.10547,-8.41528 -4.10547,-13.6836 0,-6.23399 -1.79317,-9.57812 -5.13281,-9.57812 -2.82237,0 -5.13086,2.61584 -5.13086,5.81445 0,4.33172 -0.9886,4.82779 -3.875,1.94141 -6.51567,-6.51572 -0.64186,-14.59961 10.60937,-14.59961 5.70385,0 10.3711,-1.53832 10.3711,-3.41992 0,-1.88157 -6.15917,-3.42188 -13.68555,-3.42188 z m -333.564448,3.32422 c -0.374669,0.72329 -0.628578,5.01241 -0.640625,12.06836 -0.01923,11.28333 0.604159,16.32034 1.384765,11.17969 0.780072,-5.14069 0.794681,-14.37652 0.0332,-20.52539 -0.285531,-2.30583 -0.552543,-3.15664 -0.777344,-2.72266 z m 505.457028,3.98047 c 0.96991,-0.0865 2.1134,-0.0319 3.4375,0.15625 4.23357,0.60128 7.69727,2.63207 7.69727,4.51367 0,1.88156 -3.4637,3.91243 -7.69727,4.51367 -5.2964,0.75228 -7.69726,-0.65534 -7.69726,-4.51367 0,-2.89406 1.35006,-4.41049 4.25976,-4.66992 z m -356.630856,2.95898 c -8.69167,0 -13.667333,1.55931 -13.636719,4.27539 0.113934,10.43055 4.530795,19.1637 11.367187,22.47071 9.628479,4.65762 15.953126,4.90521 15.953126,0.62304 0,-1.8816 -2.198708,-3.42187 -4.886719,-3.42187 -6.433213,0 -16.237228,-9.94721 -13.757813,-13.95899 1.06913,-1.72992 5.701968,-3.14648 10.294922,-3.14648 4.592916,0 8.34961,-1.53836 8.34961,-3.41992 0,-1.8816 -6.157217,-3.42188 -13.683594,-3.42188 z M 429.0293,460.39062 c 2.99735,0 4.71424,2.40322 4.07422,5.70313 -1.33259,6.87114 -8.16333,9.74716 -11.25782,4.74023 -3.00797,-4.86701 0.82813,-10.44335 7.1836,-10.44336 z m -326.32618,23.24219 c -1.59233,0.15494 -3.789037,0.79537 -6.205073,1.88281 -7.378794,3.32108 -8.519586,5.6693 -7.123047,14.66797 0.914544,5.89316 -0.05656,12.43749 -2.160156,14.54102 -2.818912,2.81881 -1.845943,3.82422 3.701172,3.82422 4.409385,0 7.52539,2.12451 7.52539,5.13086 v 0.002 c 0,2.82236 1.540315,5.13086 3.421874,5.13086 1.88161,0 3.41992,-2.3085 3.41992,-5.13086 0,-2.82244 2.69551,-5.23402 5.98828,-5.36328 4.76659,-0.18433 4.41745,-0.98961 -1.71093,-3.94531 -4.23361,-2.04178 -7.92842,-5.01532 -8.21094,-6.60938 -1.61854,-9.14143 -0.54361,-11.44375 5.34961,-11.44726 3.60125,-0.002 7.19528,-1.92929 7.98437,-4.28125 0.78921,-2.35215 -1.00324,-4.27539 -3.98242,-4.27539 -2.97918,0 -5.41797,-1.39501 -5.41797,-3.09961 0,-0.85255 -0.98768,-1.18228 -2.58008,-1.02735 z m 338.1836,0.26953 -12.9961,1.07227 -12.99804,1.07227 -1.04492,18.23828 c -0.60129,10.50633 0.66382,20.2957 2.98437,23.09179 3.11138,3.74846 3.05901,4.85352 -0.23047,4.85352 -3.26649,0 -3.3303,1.1181 -0.27539,4.79883 3.044,3.66769 2.99884,5.12919 -0.19531,6.19336 -2.7306,0.91022 -3.21504,3.69312 -1.39648,8.02929 1.53087,3.65046 2.45998,12.41088 2.06445,19.4668 -0.41053,7.32488 0.86026,12.82812 2.96289,12.82813 2.02549,-10e-6 3.68359,-2.30839 3.68359,-5.13086 0,-6.64067 3.09296,-6.49035 10.84961,0.52929 7.45984,6.75122 8.10424,2.20221 1.01563,-7.16992 -6.50676,-8.60224 -6.44821,-19.01758 0.10742,-19.01758 2.8224,0 5.13281,-1.54031 5.13281,-3.42187 0,-1.88164 -2.21837,-3.41992 -4.92969,-3.41992 -7.14228,0 -10.4376,-7.09762 -4.91797,-10.59375 3.62918,-2.2986 3.13994,-3.0785 -2.12695,-3.38086 -5.5556,-0.31953 -5.2336,-0.83657 1.71094,-2.75782 7.80593,-2.15969 8.64146,-4.24092 9.57617,-23.82421 z m 51.65039,0.88868 c -3.51496,0.16942 -7.11788,1.22136 -8.97852,2.76562 -4.40197,3.65337 -6.92704,32.55732 -3.34961,38.3457 0.98884,1.59999 7.16814,2.91016 13.73243,2.91016 h 11.93554 l -1.01757,-21.38281 c -0.92244,-19.3646 -1.76254,-21.48754 -8.9043,-22.5 -1.0843,-0.1537 -2.24632,-0.19515 -3.41797,-0.13867 z m -238.43555,1.25781 -1.02539,21.59765 -1.02344,21.59961 12.99805,-1.07226 12.99805,-1.07227 v -20.52734 -20.52539 h -11.97461 z m 127.9336,1.70703 1.0332,17.87891 c 0.87114,15.06017 2.36427,18.53761 9.47266,22.0664 11.00473,5.46308 13.25371,2.90366 4.21289,-4.79297 -7.05472,-6.00559 -8.71406,-10.67939 -7.92579,-22.32226 0.59131,-8.73385 14.08985,-7.91372 14.08985,0.85547 0,3.76316 1.54024,6.84179 3.42187,6.84179 1.88157,0 3.41993,-4.61887 3.41993,-10.26367 0,-9.71493 -0.74054,-10.26367 -13.86329,-10.26367 z m -312.470707,0.004 c -6.47452,0 -12.723769,1.53832 -13.886719,3.41992 -1.276924,2.06611 3.387101,3.42187 11.773438,3.42187 7.637431,0 13.884764,-1.54031 13.884766,-3.42187 0,-1.8816 -5.296965,-3.41992 -11.771485,-3.41992 z m 655.523437,0.47461 c -1.34435,-0.0346 -2.76119,-0.0205 -4.57227,0.1582 -0.51675,0.051 -0.91195,0.30038 -1.4121,0.39062 1.22368,1.40859 3.19816,3.91919 5.09375,6.15821 0.042,0.032 0.10296,0.0219 0.14453,0.0547 0.24497,-2.25437 0.49994,-4.50749 0.74609,-6.76171 z m -460.19531,0.2539 c 0.84655,-0.35342 1.10424,1.24811 1.13086,5.05664 0.0288,4.12245 -1.4875,8.44698 -3.36914,9.60938 -4.35565,2.69189 -4.35565,-5.23466 0,-11.97461 1.01105,-1.56446 1.73035,-2.47936 2.23828,-2.69141 z m 229.05859,0.084 c 1.41025,-0.39921 1.37106,2.13373 0.16406,8.59375 -1.18873,6.362 -0.65077,11.11914 1.25782,11.11914 1.83454,0 3.33593,2.98839 3.33593,6.64062 0,13.70986 -6.16836,9.78096 -8.4414,-5.37695 -1.60328,-10.69149 -1.03041,-17.01773 1.7793,-19.63672 0.80269,-0.74826 1.43421,-1.20678 1.90429,-1.33984 z m -67.38867,2.60546 c 1.71515,0 2.78708,2.26527 2.38086,5.03321 -1.23825,8.43651 -5.49805,10.27955 -5.49805,2.3789 0,-4.07675 1.40208,-7.41211 3.11719,-7.41211 z M 67.652344,501.44141 c -12.074687,0 -13.683594,0.94265 -13.683594,8.02148 0,8.84353 8.23116,17.7284 18.814453,20.30664 3.763208,0.91691 7.226866,1.846 7.697266,2.06445 0.470479,0.21827 0.855469,-1.14187 0.855469,-3.02343 0,-1.8816 -1.802029,-3.42188 -4.00586,-3.42188 -4.77518,0 -16.519531,-10.10593 -16.519531,-14.21484 0,-1.58986 4.618898,-2.89063 10.263672,-2.89063 5.644811,0 10.261718,-1.54031 10.261719,-3.42187 0,-1.88164 -6.157217,-3.41992 -13.683594,-3.41992 z m 364.830076,4.46875 c 0.85174,-0.087 1.14785,1.94695 1.17383,6.44726 0.0288,5.06328 -1.48758,10.15788 -3.36914,11.32031 -4.36842,2.6998 -4.36842,-8.63492 0,-15.39453 0.97272,-1.50514 1.68427,-2.32084 2.19531,-2.37304 z m -165.7207,3.80078 c 1.5552,-0.32038 2.73437,1.7209 2.73437,5.01367 0,3.76327 -1.54027,7.79272 -3.42187,8.95508 -1.88161,1.16292 -3.41992,-0.96321 -3.41992,-4.72657 0,-3.7631 1.53831,-7.79459 3.41992,-8.95703 0.2352,-0.14536 0.46533,-0.23938 0.6875,-0.28515 z M 67.392578,532.42383 c -0.744205,0.0987 -1.393293,0.8875 -1.996094,2.37305 -0.954353,2.3519 -3.679035,4.27539 -6.054687,4.27539 -2.888432,0 -4.211778,5.1119 -3.992188,15.43164 0.230555,10.84369 1.600491,14.94494 4.605469,13.79297 2.488819,-0.95452 4.275391,1.05503 4.275391,4.80859 0,3.54735 -1.9046,7.08554 -4.232422,7.86133 -2.327822,0.77567 1.905935,1.48502 9.408203,1.5625 7.501807,0.0831 10.947101,-0.5365 7.654297,-1.37696 -7.586952,-1.93602 -7.881657,-11.28906 -0.355469,-11.28906 4.297485,0 3.486425,-1.98623 -3.421875,-8.38867 -11.903055,-11.03142 -11.419324,-14.86054 2.066406,-16.36328 9.666407,-1.07724 10.225878,-1.63196 4.277344,-4.24414 -3.76317,-1.65241 -8.115459,-4.65687 -9.669922,-6.67578 -0.981781,-1.27542 -1.820248,-1.86634 -2.564453,-1.76758 z m 424.039062,3.20312 c -5.34212,0.24001 -10.18785,2.6086 -11.57226,6.97071 -1.57728,4.96955 0.98108,10.56714 8.98828,19.67187 l 11.1914,12.72461 -11.5625,1.71094 c -11.14307,1.6487 -11.33733,1.93188 -5.3789,7.86914 5.74662,5.72621 5.77986,6.45471 0.46679,10.33984 -7.52511,5.50239 -5.24808,29.08369 3.41993,35.42188 7.32349,5.3551 15.14453,5.92603 15.14453,1.10547 0,-1.8816 -2.34592,-3.42188 -5.21485,-3.42188 -5.7501,0 -13.12214,-15.79856 -10.52734,-22.56055 2.2323,-5.81714 15.00864,-2.06816 16.87305,4.95118 0.82329,3.09974 1.67645,0.54261 1.89453,-5.6836 0.23697,-6.75987 -0.98256,-10.46901 -3.02539,-9.20703 -1.97432,1.22022 -3.39743,-1.94814 -3.36719,-7.49414 0.0406,-7.46166 0.79216,-8.46308 3.36719,-4.47851 2.65768,4.11244 3.32643,3.53057 3.36914,-2.92774 0.0288,-4.43244 -3.8685,-12.71913 -8.66211,-18.41602 -4.79365,-5.69689 -8.16791,-12.8469 -7.4961,-15.88867 1.27764,-5.78517 3.22121,-6.01601 14.5,-1.72265 6.08111,2.31477 6.3195,1.96221 2.14649,-3.16797 -3.37442,-4.14807 -9.21257,-6.03689 -14.55469,-5.79688 z m -324.56836,5.02539 c -8.63911,0 -13.78104,1.60051 -13.94726,4.3418 -0.14393,2.38821 -0.26368,10.50098 -0.26368,18.02734 0,7.52629 0.11896,14.45317 0.26368,15.39454 0.14476,0.94129 6.42085,1.71093 13.94726,1.71093 h 13.68555 v -19.73828 -19.73633 z m -64.32226,0.45508 c -10.042709,-0.29669 -10.941679,0.55448 -10.941411,10.36719 1.14e-4,5.88 -0.962674,15.50274 -2.138671,21.38281 -2.08091,10.40455 3.213395,15.59737 6.539062,6.41406 1.23888,-3.42103 2.996817,-3.42103 8.79102,0 10.93523,6.4565 12.76481,5.15592 4.8164,-3.42187 -3.92294,-4.23356 -7.65431,-11.54604 -8.29297,-16.25 -0.91692,-6.75383 0.49837,-8.78875 6.73243,-9.67188 11.54092,-1.63589 7.29239,-8.44141 -5.50586,-8.82031 z m 64.32226,5.74805 c 3.76317,-0.28347 6.8418,1.51995 6.8418,4.00586 0,2.48606 -3.07863,5.32467 -6.8418,6.30859 -4.8531,1.26909 -6.8418,0.10565 -6.8418,-4.0039 0,-3.34126 2.89591,-6.0131 6.8418,-6.31055 z m 0,16.16601 c 3.80117,0 6.8418,2.28004 6.8418,5.13086 0,2.85094 -3.04063,5.13086 -6.8418,5.13086 -3.80121,0 -6.8418,-2.27992 -6.8418,-5.13086 0,-2.85082 3.04059,-5.13086 6.8418,-5.13086 z m 817.33203,10.55664 c 6.1e-4,0.21159 9.2e-4,0.42318 0.002,0.63477 0.35031,2.67817 0.66675,5.3607 1.01562,8.03906 1.37635,0.71781 2.47739,1.0691 3.45313,1.21094 -0.63691,-2.20975 -1.60761,-5.1611 -2.18164,-7.18945 -0.89484,-1.02948 -1.14268,-1.486 -2.28907,-2.69532 z M 72.027344,589.98633 c -2.290022,-0.66542 -3.854114,6.10028 -2.332032,17.57422 1.904829,14.35959 1.446365,16.85095 -2.796874,15.22265 -3.266616,-1.25348 -4.50409,-4.93224 -3.472657,-10.32812 0.881186,-4.6097 0.04809,-8.38086 -1.851562,-8.38086 -4.193031,0 -7.606048,8.18952 -7.603516,18.24023 0.0016,6.37954 2.155635,7.54115 15.394531,8.29883 8.466146,0.48378 15.392579,0.32796 15.392578,-0.3457 0,-0.67393 -1.412652,-5.6874 -3.138671,-11.14258 -1.72602,-5.45522 -4.065063,-14.15382 -5.197266,-19.32812 -1.386804,-6.33799 -3.020518,-9.4113 -4.394531,-9.81055 z m 17.714844,0.40429 c -6.154904,10e-6 -4.758475,27.95003 1.791015,35.8418 2.378759,2.86624 8.370422,5.18857 13.314457,5.16211 l 8.98828,-0.0527 -8.55274,-4.30664 c -7.019336,-3.53526 -8.73805,-7.20672 -9.593747,-20.47657 -0.72706,-11.27376 -2.527517,-16.16797 -5.947265,-16.16797 z m 337.123042,0 c -7.5264,0 -13.68359,1.53833 -13.68359,3.41993 0,1.88156 6.15719,3.42187 13.68359,3.42187 7.52637,0 13.68555,-1.54031 13.68555,-3.42187 0,-1.8816 -6.15918,-3.41993 -13.68555,-3.41993 z m -252.30468,0.004 c -1.41117,0.002 -6.72577,3.58186 -11.81055,7.95508 l -9.24414,7.95117 7.43945,7.43945 c 10.714,10.7144 19.69183,9.90843 9.57617,-0.85937 l -7.79687,-8.30078 7.20117,-4.4961 c 7.10799,-4.43905 9.62315,-9.69701 4.63477,-9.68945 z m -61.91016,0.62109 c -0.24867,-0.0689 -0.51042,-0.061 -0.78125,0.0293 -2.02272,0.67416 -3.5612,2.34293 -3.41992,3.70703 0.14166,1.36415 0.25586,6.32928 0.25586,11.03321 0,4.70396 1.54031,8.55273 3.42187,8.55273 1.88165,0 3.41992,-5.51739 3.41993,-12.25977 -1e-5,-6.31935 -1.15577,-10.5802 -2.89649,-11.0625 z m 277.37109,1.02344 c -6.59735,0.0569 -7.6289,3.22322 -7.6289,12.8418 0,7.80204 2.98531,13.22426 11.11719,20.18555 6.1152,5.23498 12.27434,9.57877 13.68554,9.65625 3.75753,0.20352 3.13175,-5.9479 -0.85547,-8.41211 -1.88163,-1.16281 -3.42187,-5.87392 -3.42187,-10.4668 0,-5.14231 -1.97091,-8.34961 -5.13086,-8.34961 -2.8224,0 -5.17964,2.69349 -5.23633,5.98633 -0.0988,5.6855 -0.27994,5.68535 -3.60547,-0.0254 -4.85616,-8.339 -1.10742,-12.80274 10.75391,-12.80274 13.58048,0 12.81135,-5.648 -1.05664,-7.75781 -3.60357,-0.5482 -6.42198,-0.87445 -8.6211,-0.85547 z m 596.57813,1.20313 c 0.34372,2.65451 0.66362,5.31209 1.00586,7.96679 2.12226,1.2516 3.73828,2.90853 3.73828,4.76172 0,1.4046 -1.14621,2.44758 -2.73828,3.15821 0.26856,2.09254 0.52652,4.18648 0.79297,6.27929 2.65315,-0.11642 6.24846,-0.31733 8.55273,-0.40625 0.007,-0.30715 0.0653,-0.39263 0.0703,-0.70898 -2.42213,-7.58419 -4.16425,-13.57771 -6.21093,-20.4707 -1.28201,-0.24922 -3.34932,-0.44353 -5.21094,-0.58008 z m -558.73828,29.70117 c -6.47999,0.25252 -13.01939,1.80623 -13.89649,4.4375 -1.11628,3.34352 2.29153,4.21969 13.40039,3.42187 8.19285,-0.58817 14.51138,-2.60863 14.04102,-4.49023 -0.64301,-2.57204 -7.06494,-3.62166 -13.54492,-3.36914 z m 296.42187,0.84961 c 0.14068,1.177 0.27907,2.35432 0.4336,3.5293 4.87076,-0.03 5.17092,-1.41341 3.89258,-2.99415 -1.06282,-0.049 -2.85364,-0.38223 -4.32618,-0.53515 z m -559.04687,11.57226 c -12.89927,-0.14763 -16.07784,9.13459 -12.39649,34.31836 0.18668,1.27692 2.75809,4.74058 5.71485,7.69727 6.1174,6.11747 13.74241,7.00169 16.86133,1.95508 1.16291,-1.88156 -1.05543,-3.41992 -4.92969,-3.41992 -9.56103,0 -8.98886,-9.51128 0.65429,-10.88086 6.51744,-0.92565 7.69727,-3.19071 7.69727,-14.77735 0,-12.87847 -0.64268,-13.74716 -10.89258,-14.74023 -0.94721,-0.0918 -1.84903,-0.1425 -2.70898,-0.15235 z m -70.152346,2.61524 c -0.659528,0.0619 -1.442816,0.54243 -2.347656,1.44726 -1.256579,1.25655 -2.987663,10.74906 -3.845703,21.09571 -2.075921,25.03256 4.595862,24.78157 7.728516,-0.29102 1.865683,-14.93258 1.322799,-22.52013 -1.535157,-22.25195 z m -40.173828,0.30273 0.384766,16.54883 c 0.360075,15.5153 1.130947,16.86856 12.357422,21.68164 13.481896,5.78 18.531495,4.56512 9.246094,-2.22461 -4.637409,-3.39088 -5.542423,-6.87706 -3.703126,-14.25976 2.199531,-8.8289 1.883598,-9.31837 -3.265624,-5.07618 -5.00278,4.12162 -5.699219,3.80747 -5.699219,-2.5664 0,-5.4644 2.116255,-7.25977 8.552734,-7.25977 4.703932,0 8.552733,-1.54027 8.552735,-3.42187 -10e-7,-1.88156 -5.945668,-3.42188 -13.212891,-3.42188 z m 371.955074,0.002 c -7.5264,0 -13.68359,1.53832 -13.68359,3.41992 0,1.88156 6.15719,3.42187 13.68359,3.42187 7.52637,0 13.68555,-1.54031 13.68555,-3.42187 0,-1.8816 -6.15918,-3.41992 -13.68555,-3.41992 z M 104.53906,638.75 c -2.52491,-0.12381 -2.65467,3.30375 -0.9375,13.66406 1.36265,8.22134 3.96181,17.77463 5.77735,21.22852 5.00527,9.5224 5.85608,5.80751 3.33203,-14.56641 -1.3466,-10.86988 -4.21486,-19.16 -6.94141,-20.0664 -0.46003,-0.15283 -0.86977,-0.24208 -1.23047,-0.25977 z m 62.32422,2.95508 c 1.88157,0 3.42188,3.75673 3.42188,8.34961 0,4.59288 -1.54031,9.30241 -3.42188,10.46484 -1.99592,1.2336 -3.41992,-2.24405 -3.41992,-8.34961 0,-5.75584 1.53828,-10.46484 3.41992,-10.46484 z m 87.80078,1.70898 -0.28125,19.67188 c -0.15478,10.8195 0.874,19.6721 2.28516,19.67187 1.4112,-4.1e-4 2.56445,-1.59308 2.56445,-3.54101 0,-2.4412 2.05575,-2.4412 6.61719,0 10.54448,5.64329 15.32942,4.102 7.5918,-2.44532 -3.89147,-3.29291 -8.07771,-10.22212 -9.30274,-15.39648 -2.0087,-8.48474 -1.32264,-9.4082 6.98242,-9.4082 5.84639,0 8.68816,-1.56048 7.78321,-4.27539 -0.78399,-2.35197 -6.55997,-4.27735 -12.83399,-4.27735 z m 142.74024,6.29297 c -0.40893,0.0789 -0.85773,0.26017 -1.32813,0.55078 -1.88156,1.16289 -3.42187,3.65356 -3.42187,5.53516 0,1.88213 1.54031,2.46907 3.42187,1.30664 1.8816,-1.16292 3.42188,-3.65359 3.42188,-5.53516 0,-1.41071 -0.86698,-2.09418 -2.09375,-1.85742 z m 7.60742,0.15039 c -1.2268,0.0543 -2.09375,1.41903 -2.09375,3.61914 0,2.93341 1.54024,5.33399 3.42187,5.33399 1.88157,0 3.41993,-1.44827 3.41993,-3.21875 0,-1.77064 -1.53836,-4.17159 -3.41993,-5.33399 -0.47041,-0.2907 -0.91919,-0.4185 -1.32812,-0.40039 z m -20.23633,0.23438 c -1.37264,-0.086 -2.38281,2.41293 -2.38281,7.86132 0,10.55963 5.44452,19.48514 13.68359,22.42969 7.85125,2.80611 10.26367,2.65319 10.26367,-0.64843 0,-1.66217 -3.08956,-3.82859 -6.86523,-4.81641 -4.30806,-1.12664 -7.65762,-5.76059 -8.99414,-12.44336 -1.57731,-7.88657 -3.94026,-12.27219 -5.70508,-12.38281 z m 42.08984,1.875 c -7.5264,0 -13.68359,1.54031 -13.68359,3.42187 0,1.8816 1.37316,3.42188 3.05078,3.42188 1.67762,0 3.95283,3.59785 5.05664,7.99609 1.10389,4.39812 5.5048,9.59538 9.7793,11.54883 9.32969,4.26383 13.64754,1.87275 5.17773,-2.86719 -7.29248,-4.08109 -7.91836,-16.67773 -0.82812,-16.67773 2.82236,0 5.13281,-1.54028 5.13281,-3.42188 0,-1.88156 -6.15918,-3.42187 -13.68555,-3.42187 z m 357.28516,3.77343 c -2.79039,0.17738 -5.12738,0.53798 -7.14258,0.95118 2.49604,1.56064 4.99226,3.12098 7.48828,4.68164 -0.11522,-1.87724 -0.23081,-3.75587 -0.3457,-5.63282 z m -11.12305,2.33399 c -0.2879,0.23831 -0.63281,0.47047 -0.63281,0.73633 0,0.48261 0.48354,0.92173 1.22461,1.32617 -0.28991,-0.68023 -0.36497,-1.37732 -0.5918,-2.0625 z m 849.35156,6.70898 c 0.2023,0.73406 0.2716,1.64964 0.5215,2.30078 0.4975,1.29654 0.8504,1.76602 1.2598,2.56641 -0.159,-0.9442 -0.5047,-1.88022 -0.6407,-2.82031 -0.5125,-0.68662 -0.6693,-1.36035 -1.1406,-2.04688 z M 461.07617,686.17383 c -1.92986,0 -3.41992,9.69238 -3.41992,22.23633 0,12.54398 1.49006,22.23632 3.41992,22.23632 1.92983,0 3.42188,-9.69234 3.42188,-22.23632 0,-12.54395 -1.49205,-22.23633 -3.42188,-22.23633 z m -391.712889,0.006 c -12.956912,0 -15.394531,4.08023 -15.394531,25.76758 0,10.30193 1.744922,15.92277 5.617188,18.08984 6.432863,3.6 18.840773,1.2807 22.552734,-4.21484 3.056149,-4.52474 3.409328,-26.76096 0.542969,-34.23047 -1.310589,-3.41534 -6.223306,-5.41211 -13.31836,-5.41211 z m 32.701169,0 c -7.701707,0 -12.182848,5.37592 -7.099606,8.51758 1.912274,1.18178 3.476562,10.52602 3.476562,20.76367 0,14.26514 1.200118,18.61328 5.132814,18.61328 4.07265,0 5.13086,-4.94123 5.13086,-23.94727 0,-21.42414 -0.70004,-23.94726 -6.64063,-23.94726 z m 296.375,0.26953 c -5.28544,-0.14857 -8.70605,1.19328 -7.60156,2.98047 1.10457,1.78718 -0.84346,4.77467 -4.33008,6.64062 -9.75787,5.22233 -5.4533,31.13821 6.14649,37.00196 10.39135,5.25335 10.26367,5.23929 10.26367,1.00195 0,-1.8816 -2.14456,-3.41992 -4.76563,-3.41992 -5.51584,0 -8.91797,-7.28578 -8.91796,-19.09571 0,-5.99202 1.88592,-8.27343 6.84179,-8.27343 3.80122,0 6.8418,2.28003 6.8418,5.13086 0,2.82236 1.54024,5.13281 3.42187,5.13281 1.88157,0 3.41993,-3.84877 3.41993,-8.55274 0,-5.32176 -1.93788,-8.55273 -5.13086,-8.55273 -6.21381,0 -6.81212,-5.59449 -0.85547,-7.99805 2.352,-0.94953 -0.0486,-1.84756 -5.33399,-1.99609 z m 33.90821,3.13867 c -1.46403,-0.0171 -3.16081,0.0137 -5.10743,0.0137 -7.73227,0 -14.05859,1.53836 -14.05859,3.41992 0,1.8816 4.63855,3.42188 10.30859,3.42188 h 10.31055 l -5.17773,12.39062 c -2.84769,6.81544 -5.17774,15.28304 -5.17774,18.81641 0,10.84743 9.34688,7.11347 11.74805,-4.69336 6.27272,-30.84374 7.40249,-33.24981 -2.8457,-33.36914 z m -265.48438,0.0117 c -9.88314,0 -13.68359,1.42664 -13.68359,5.13281 0,3.70613 3.80045,5.13086 13.68359,5.13086 9.88311,0 13.68555,-1.42473 13.68555,-5.13086 0,-3.70617 -3.80244,-5.13281 -13.68555,-5.13281 z m 34.26172,2.06445 c -2.07239,-0.15135 -4.52874,0.65341 -8.19141,2.35352 -9.84874,4.5713 -11.79034,9.26758 -3.83203,9.26758 2.82237,0 5.13086,2.30849 5.13086,5.13086 0,2.82236 -2.30849,5.13281 -5.13086,5.13281 -6.82979,0 -6.48967,5.35594 0.85352,13.39844 7.3678,8.06951 11.11914,8.74311 11.11914,1.99609 0,-2.82236 2.30845,-5.13281 5.13086,-5.13281 6.80196,0 6.48898,-3.32214 -0.85352,-9.0293 -5.68043,-4.41536 -5.66038,-4.90856 0.41602,-9.61328 5.71068,-4.42167 5.84516,-5.51811 1.24023,-10.12305 -2.12273,-2.1226 -3.81042,-3.2295 -5.88281,-3.38086 z M 67.332031,693.0216 c 1.70552,0 2.296602,3.07864 1.3125,6.8418 -0.984106,3.7632 -2.380183,6.84375 -3.101562,6.84375 -0.721418,0 -1.3125,-3.08055 -1.3125,-6.84375 0,-3.76316 1.396118,-6.8418 3.101562,-6.8418 z m 196.830079,0 c -8.57819,0 -14.87483,1.1533 -13.99414,2.56446 2.16148,3.46397 29.5918,3.61943 29.5918,0.16797 0,-1.50271 -7.01943,-2.73243 -15.59766,-2.73243 z m 58.83594,0 c -3.12317,0 -4.11979,2.81757 -3.02344,8.55274 0.95439,4.99257 0.0463,8.55273 -2.18359,8.55273 -2.10092,0 -3.82032,2.40054 -3.82032,5.33399 0,2.93344 1.43201,4.44746 3.1836,3.36523 1.75154,-1.08253 7.36588,1.9059 12.47461,6.64063 11.93952,11.06547 18.80782,11.2506 8.45312,0.22851 -7.61123,-8.1016 -7.767,-18.98828 -0.27148,-18.98828 1.94064,0 3.52734,-1.71927 3.52734,-3.82031 0,-2.13434 -3.01636,-3.03203 -6.8418,-2.03125 -4.44692,1.16281 -6.84179,0.10554 -6.84179,-3.02149 0,-2.64627 -2.09477,-4.8125 -4.65625,-4.8125 z M 69.248047,715.12891 c 0.206258,0.0769 0.432658,0.39638 0.669922,0.98437 0.949054,2.35196 0.949054,6.20077 0,8.55274 -0.949093,2.352 -1.72461,0.42868 -1.72461,-4.2754 0,-3.52822 0.435914,-5.49231 1.054688,-5.26171 z m 229.328123,8.67578 c -2.82237,0 -5.13281,1.54031 -5.13281,3.42187 0,1.8816 2.31044,3.41992 5.13281,3.41992 2.82245,0 5.13086,-1.53832 5.13086,-3.41992 0,-1.88156 -2.30841,-3.42187 -5.13086,-3.42187 z m -131.71289,0.006 c -16.37117,0 -18.37874,5.923 -2.56445,7.56445 12.54904,1.30277 16.25,0.31331 16.25,-4.34375 0,-1.77044 -6.15917,-3.2207 -13.68555,-3.2207 z m 740.52149,6.21093 c 0.0562,0.1187 0.14018,0.62098 0.19335,0.70704 0.81263,1.31447 3.8307,2.17831 7.23047,2.65039 -0.0364,-0.32605 -0.0809,-0.66648 -0.11718,-0.98829 -3.21642,-1.05597 -3.94434,-1.26569 -7.30664,-2.36914 z m -640.42188,7.44141 c -2.56925,0.009 -5.5961,0.47222 -9.13086,1.35938 -6.34262,1.59197 -7.43391,3.75828 -6.18359,12.27734 1.39566,9.50853 2.60908,10.34375 15.03125,10.34375 13.1779,0 13.48681,-0.27607 12.4414,-11.0918 -0.85727,-8.86977 -4.45043,-12.91667 -12.1582,-12.88867 z m -165.09961,0.0312 c -7.52637,0 -13.683594,1.54031 -13.683592,3.42188 -10e-7,1.88163 3.846811,3.42187 8.550781,3.42187 5.321661,0 8.552731,1.93788 8.552731,5.13086 0,2.8224 -2.69356,5.15714 -5.986325,5.18359 -3.292808,0.0287 -8.294824,1.69771 -11.117187,3.70899 -3.88639,2.76884 -2.330355,3.17179 6.414062,1.6582 6.35037,-1.09863 13.66276,-1.99805 16.25,-1.99805 2.9459,0 4.70312,-3.83617 4.70313,-10.26367 -1e-5,-9.69305 -0.75951,-10.26367 -13.6836,-10.26367 z m -26.513671,0.38867 c -0.704219,0.11696 -0.855468,1.43159 -0.855468,4.01172 0,3.22553 -2.308494,6.05751 -5.13086,6.29297 -10.670933,0.88932 -11.997259,1.37123 -12.830078,4.66992 -0.4704,1.86312 3.76343,4.37561 9.408203,5.58203 5.644774,1.207 11.237908,2.37738 12.429688,2.59961 4.968,0.92799 5.900033,-15.23281 1.152344,-19.98047 -2.212812,-2.21266 -3.469609,-3.29273 -4.173829,-3.17578 z m 114.257811,0.16797 c -5.18567,0.20586 -5.63867,2.2339 -5.63867,9.07813 0,5.36356 1.0269,10.779 2.28125,12.0332 3.5872,3.58768 22.30644,2.66269 20.04883,-0.99023 -1.11209,-1.79963 -4.28278,-2.40594 -7.04492,-1.34571 -3.13139,1.20174 -5.02149,-0.14232 -5.02149,-3.57031 0,-3.63065 3.0013,-5.49805 8.83789,-5.49805 13.73126,0 7.96334,-8.30275 -6.54101,-9.41601 -2.93866,-0.2255 -5.19332,-0.35964 -6.92188,-0.29102 z m -32.99609,2.86524 c -3.34152,0 -7.10141,13.93586 -4.77539,17.69921 4.45521,7.20858 10.34453,2.29753 8.91601,-7.43554 -0.82851,-5.64473 -2.69203,-10.26367 -4.14062,-10.26367 z m 20.51562,0 c -1.88164,0 -3.44191,1.1552 -3.46875,2.5664 -0.0257,1.4112 -0.97479,6.03007 -2.10937,10.26367 -1.51654,5.65894 -0.59718,7.69727 3.46875,7.69727 3.86443,0 5.53125,-3.09236 5.53125,-10.26367 0,-5.64473 -1.54031,-10.26367 -3.42188,-10.26367 z m 109.47461,0 c -1.88156,0 -3.42187,2.31045 -3.42187,5.13281 0,2.82236 1.54031,5.13086 3.42187,5.13086 1.88161,0 3.42188,-2.3085 3.42188,-5.13086 0,-2.82236 -1.54027,-5.13281 -3.42188,-5.13281 z m 20.52735,0 c -1.88161,0 -3.42188,2.31045 -3.42188,5.13281 0,2.82236 1.54027,5.13086 3.42188,5.13086 1.88156,0 3.41992,-2.3085 3.41992,-5.13086 0,-2.82236 -1.53836,-5.13281 -3.41992,-5.13281 z m 12.84961,0 c -2.55013,0 -5.98223,14.38081 -4.14258,17.35742 0.84483,1.36683 6.9332,2.48437 13.52929,2.48437 13.72106,0 15.83938,-2.004 13.11915,-12.40625 -2.31815,-8.86473 -11.36213,-10.00274 -11.51758,-1.44922 -0.10361,5.70187 -0.32603,5.70187 -4.6543,0 -2.49961,-3.29283 -5.34961,-5.98632 -6.33398,-5.98632 z m 132.81445,0.19531 c -2.54821,0.56578 -5.30469,3.47549 -6.22266,8.27734 -0.89027,4.65986 -0.88788,9.20481 0.008,10.09961 0.89737,0.89238 7.21796,1.30903 14.04883,0.91992 10.97636,-0.62475 12.31494,-1.67745 11.49414,-9.0332 -1.28882,-11.54903 -3.46379,-12.73996 -9.26171,-5.07617 -4.52879,5.98582 -4.99782,6.04179 -5.09571,0.60547 -0.0832,-4.57958 -2.4225,-6.35876 -4.9707,-5.79297 z m -25.02735,0.24609 c -0.66524,0.28486 -0.73866,2.43289 -0.79101,6.6875 -0.0598,4.86085 0.91752,9.86295 2.17187,11.11719 8.14617,8.14636 10.65445,-3.14012 2.95899,-13.31445 -2.41801,-3.19695 -3.67454,-4.77509 -4.33985,-4.49024 z m -27.21874,0.28711 c -7.37208,0.19442 -18.1543,3.40518 -18.1543,6.38672 0,1.73208 6.15723,3.14844 13.68359,3.14844 13.0458,0 17.71539,-3.94612 10.17969,-8.60352 -1.17387,-0.72549 -3.25169,-0.99645 -5.70898,-0.93164 z m -135.67579,0.24805 c 0.91125,0.0633 1.80577,0.65087 2.56836,1.88476 1.01052,1.6351 -0.37388,5.8929 -3.07617,9.46289 -4.75181,6.27757 -4.91668,6.24523 -5.02148,-1.0039 -0.0871,-6.00007 2.79556,-10.53372 5.52929,-10.34375 z M 1460.1113,752.5293 c 0,0.14975 -0.078,0.2081 -0.078,0.36132 0,2.83241 0.4161,4.52297 1.2637,5.80079 -0.3909,-2.05487 -0.7955,-4.1071 -1.1856,-6.16211 z m -1060.61911,4.71875 c -7.55703,-0.0158 -17.09961,1.14508 -17.09961,2.85742 0,0.73493 6.24736,1.33789 13.88476,1.33789 7.63741,0 13.11923,-1.2427 12.18164,-2.75977 -0.61423,-0.99387 -4.43257,-1.42606 -8.96679,-1.43554 z" />
    <circle
       style="fill:#000000;stroke:#cccccc;stroke-width:0.1"
       id="path102623"
       cx="34.000202"
       cy="10.942484"
       r="4.5272036" />
    <circle
       style="fill:#000000;stroke:#cccccc;stroke-width:0.1"
       id="circle102745"
       cx="114.00021"
       cy="10.942484"
       r="4.5272036" />
    <text
       xml:space="preserve"
       transform="matrix(0.66749445,0,0,0.56853636,-127.42297,-170.82126)"
       id="text168322"
       style="font-style:normal;font-variant:normal;font-weight:normal;font-stretch:normal;font-size:34.3597px;line-height:1.25;font-family:Arial;-inkscape-font-specification:Arial;text-align:center;letter-spacing:-4.29496px;word-spacing:-0.0429496px;white-space:pre;shape-inside:url(#rect168324)"
       x="83.037109"
       y="0"><tspan
         x="208.25205"
         y="563.38735"
         id="tspan217781"></tspan></text>
    <text
       xml:space="preserve"
       transform="matrix(0.66749445,0,0,0.56853636,-127.1822,-147.65854)"
       id="text168322-9"
       style="font-style:normal;font-variant:normal;font-weight:normal;font-stretch:normal;font-size:34.3597px;line-height:1.25;font-family:Arial;-inkscape-font-specification:Arial;text-align:center;word-spacing:0px;white-space:pre;shape-inside:url(#rect168324-7)"
       x="83.037109"
       y="0"><tspan
         x="249.0542"
         y="563.38735"
         id="tspan217783"></tspan></text>
    <text
       xml:space="preserve"
       transform="matrix(0.66749445,0,0,0.56853636,-127.55175,-122.94063)"
       id="text168322-9-2"
       style="font-style:normal;font-variant:normal;font-weight:normal;font-stretch:normal;font-size:34.3597px;line-height:1.25;font-family:Arial;-inkscape-font-specification:Arial;text-align:center;word-spacing:0px;white-space:pre;shape-inside:url(#rect168324-7-0)"
       x="83.037109"
       y="0"><tspan
         x="249.0542"
         y="563.38735"
         id="tspan217785"></tspan></text>
    <text
       xml:space="preserve"
       transform="scale(0.26458333)"
       id="text204858"
       style="font-style:italic;font-size:40px;line-height:1.25;font-family:'Brush Script MT';-inkscape-font-specification:'Brush Script MT Italic';word-spacing:0px;white-space:pre;shape-inside:url(#rect204860)" />
  </g>
  <text
     xml:space="preserve"
     transform="matrix(0.34585971,0,0,0.34585971,-30.17109,-44.621113)"
     id="text4149"
     style="font-style:italic;font-variant:normal;font-weight:normal;font-stretch:normal;font-size:192px;line-height:1.25;font-family:Futura;-inkscape-font-specification:'Futura Italic';text-align:center;word-spacing:0px;white-space:pre;shape-inside:url(#rect4151)"
     x="40.966797"
     y="0"><tspan
       x="166.70605"
       y="315.65834"
       id="tspan217789"><tspan
         style="font-size:133.333px"
         id="tspan217787">DAY</tspan></tspan></text>
  <text
     xml:space="preserve"
     transform="scale(0.26458333)"
     id="text20781"
     style="line-height:1.25;font-family:Futura;font-size:40px;word-spacing:0px;-inkscape-font-specification:'Futura Italic';font-style:italic;white-space:pre;shape-inside:url(#rect20783);font-weight:normal;font-stretch:normal;font-variant:normal" />
  <text
     xml:space="preserve"
     transform="matrix(0.74474046,0,0,0.61567545,-121.18949,-137.58319)"
     id="text26023"
     style="font-style:italic;font-variant:normal;font-weight:normal;font-stretch:normal;font-size:104.196px;line-height:1.25;font-family:Futura;-inkscape-font-specification:'Futura Italic';word-spacing:0px;white-space:pre;shape-inside:url(#rect26025)"
     x="5.4492188"
     y="0"><tspan
       x="168.17177"
       y="423.7706"
       id="tspan217793"><tspan
         style="font-style:normal;font-weight:800;font-stretch:condensed;-inkscape-font-specification:'Futura Ultra-Bold Condensed';text-align:center;text-anchor:middle"
         id="tspan217791">0
</tspan></tspan></text>
</svg>
